#!OML:ASF H:\Dans Jumps\Project 1\Capture day 1\Session 1\subject.ASF
:FULLY-SPECIFIED
:DEGREES
244
root 0.563058 13.5027 -16.571 33.5289 0.778438 -2.04264
lowerback 40.3009 1.54578 -1.18701
upperback 3.60615 1.93757 3.01407
thorax -15.8551 0.953117 3.05986
lowerneck -20.8625 -0.572057 -2.00426
upperneck -8.67118 -0.345869 -1.01912
head 0.664721 -0.149204 -0.0082325
rclavicle 6.36111e-015 2.92213e-014
rhumerus -59.1816 -20.5093 -53.449
rradius 18.9187
rwrist 37.1737
rhand -18.648 -21.5239
rfingers 7.12502
rthumb 7.64488 -51.3657
lclavicle 6.36111e-015 2.92213e-014
lhumerus -54.5902 10.6295 71.4194
lradius 10.5113
lwrist -2.83695
lhand -21.3651 -5.77852
lfingers 7.12502
lthumb 5.02182 24.142
rfemur -90.6716 -1.08842 23.2518
rtibia 88.4895
rfoot -32.8048 -16.8248
rtoes 5.63344
lfemur -91.9226 6.3621 -23.08
ltibia 87.5921
lfoot -25.7279 22.4872
ltoes -9.90909
245
root 0.5588 13.4915 -16.5127 33.6159 0.837286 -2.13478
lowerback 40.4766 1.55862 -1.1213
upperback 3.52385 1.99022 3.05032
thorax -16.0202 0.973346 3.03999
lowerneck -20.9441 -0.565568 -1.95482
upperneck -8.72452 -0.34752 -1.0835
head 0.659397 -0.152731 -0.0375042
rclavicle 1.19271e-015 3.18055e-015
rhumerus -58.1255 -21.2346 -53.3204
rradius 18.5053
rwrist 38.0538
rhand -19.0167 -21.5475
rfingers 7.12502
rthumb 7.28906 -51.402
lclavicle 1.19271e-015 3.18055e-015
lhumerus -53.3192 11.6064 70.8182
lradius 9.73292
lwrist -4.69866
lhand -21.7057 -5.92572
lfingers 7.12502
lthumb 4.69292 24.0023
rfemur -90.5825 -1.07949 23.4022
rtibia 88.6636
rfoot -32.8643 -16.9226
rtoes 5.74507
lfemur -91.9035 6.46949 -22.9979
ltibia 87.8324
lfoot -25.8402 22.5026
ltoes -9.72615
246
root 0.554442 13.4845 -16.4501 33.7309 0.897155 -2.21455
lowerback 40.5508 1.56877 -1.05969
upperback 3.44001 2.03803 3.08291
thorax -16.1511 0.991945 3.02113
lowerneck -21.0478 -0.556447 -1.87641
upperneck -8.757 -0.351733 -1.18126
head 0.66463 -0.159582 -0.0826309
rclavicle 1.31198e-014 -1.0138e-014
rhumerus -56.924 -22.0113 -53.273
rradius 18.096
rwrist 38.9411
rhand -19.381 -21.5993
rfingers 7.12502
rthumb 6.93734 -51.4656
lclavicle 1.31198e-014 -1.0138e-014
lhumerus -51.872 12.6379 70.2982
lradius 8.91611
lwrist -6.41928
lhand -22.084 -6.03091
lfingers 7.12502
lthumb 4.32761 23.9049
rfemur -90.477 -1.05202 23.5205
rtibia 88.7983
rfoot -32.9284 -17.0228
rtoes 5.86651
lfemur -91.8594 6.54151 -22.8986
ltibia 88.0271
lfoot -25.9543 22.5278
ltoes -9.56251
247
root 0.549776 13.4818 -16.3834 33.8882 0.971077 -2.28199
lowerback 40.5048 1.57049 -0.994236
upperback 3.35362 2.07812 3.1164
thorax -16.2424 1.00754 3.00572
lowerneck -21.1795 -0.54816 -1.78582
upperneck -8.76116 -0.359076 -1.30324
head 0.683937 -0.169477 -0.137948
rclavicle -1.03368e-014 -1.25234e-014
rhumerus -55.5835 -22.8608 -53.2803
rradius 17.7014
rwrist 39.8784
rhand -19.7223 -21.6488
rfingers 7.12502
rthumb 6.60793 -51.5257
lclavicle -1.03368e-014 -1.25234e-014
lhumerus -50.2601 13.7304 69.8548
lradius 8.09463
lwrist -7.96641
lhand -22.4694 -6.09398
lfingers 7.12502
lthumb 3.95551 23.8491
rfemur -90.3759 -1.01257 23.6171
rtibia 88.8922
rfoot -32.9811 -17.15
rtoes 5.93579
lfemur -91.8094 6.57077 -22.7801
ltibia 88.1757
lfoot -26.0728 22.5599
ltoes -9.39603
248
root 0.545329 13.4841 -16.3122 34.07 1.04121 -2.33809
lowerback 40.3635 1.57121 -0.931896
upperback 3.26569 2.11506 3.14503
thorax -16.3011 1.02222 2.98868
lowerneck -21.3412 -0.538644 -1.68152
upperneck -8.73397 -0.36697 -1.44848
head 0.718792 -0.181205 -0.203343
rclavicle -5.1684e-015 -7.55382e-015
rhumerus -54.1152 -23.8071 -53.3302
rradius 17.3447
rwrist 40.8633
rhand -19.967 -21.6925
rfingers 7.12502
rthumb 6.37166 -51.5767
lclavicle -5.1684e-015 -7.55382e-015
lhumerus -48.4831 14.8748 69.4978
lradius 7.28353
lwrist -9.33458
lhand -22.8972 -6.11116
lfingers 7.12502
lthumb 3.54241 23.8392
rfemur -90.2516 -0.954579 23.683
rtibia 88.936
rfoot -33.0282 -17.3006
rtoes 5.9779
lfemur -91.7243 6.56441 -22.6458
ltibia 88.2735
lfoot -26.1973 22.6153
ltoes -9.21537
249
root 0.541747 13.4932 -16.2354 34.2416 1.09703 -2.39542
lowerback 40.1632 1.57342 -0.870228
upperback 3.17969 2.15243 3.16862
thorax -16.3359 1.03708 2.9666
lowerneck -21.5267 -0.534955 -1.59787
upperneck -8.67441 -0.376689 -1.57656
head 0.76869 -0.193403 -0.260139
rclavicle 9.54166e-015 5.56597e-015
rhumerus -52.5215 -24.8332 -53.4481
rradius 17.0521
rwrist 41.8538
rhand -20.1615 -21.7221
rfingers 7.12502
rthumb 6.18386 -51.6119
lclavicle 9.54166e-015 5.56597e-015
lhumerus -46.5673 16.0685 69.2259
lradius 6.51169
lwrist -10.5997
lhand -23.4105 -6.13053
lfingers 7.12502
lthumb 3.04664 23.8274
rfemur -90.0479 -0.870768 23.7249
rtibia 88.9199
rfoot -33.0801 -17.4875
rtoes 5.97901
lfemur -91.5513 6.53713 -22.4863
ltibia 88.316
lfoot -26.3419 22.6995
ltoes -8.99843
250
root 0.53892 13.5091 -16.153 34.4021 1.14437 -2.45526
lowerback 39.9092 1.57276 -0.807073
upperback 3.09216 2.18585 3.18746
thorax -16.352 1.05026 2.94075
lowerneck -21.7179 -0.530669 -1.52867
upperneck -8.59445 -0.381588 -1.68655
head 0.826677 -0.202624 -0.308577
rclavicle 0 -3.39922e-014
rhumerus -50.7936 -25.9024 -53.6869
rradius 16.854
rwrist 42.7283
rhand -20.327 -21.7629
rfingers 7.12502
rthumb 6.02409 -51.6573
lclavicle 0 -3.39922e-014
lhumerus -44.5298 17.3113 69.0392
lradius 5.7914
lwrist -11.8503
lhand -23.9579 -6.15928
lfingers 7.12502
lthumb 2.51801 23.8056
rfemur -89.762 -0.764419 23.7484
rtibia 88.8412
rfoot -33.1421 -17.713
rtoes 5.95698
lfemur -91.2907 6.48928 -22.3
ltibia 88.2995
lfoot -26.4999 22.8089
ltoes -8.73966
251
root 0.53637 13.5297 -16.067 34.6046 1.19189 -2.50646
lowerback 39.5462 1.56461 -0.750279
upperback 2.9944 2.20645 3.20157
thorax -16.339 1.05904 2.92008
lowerneck -21.918 -0.536873 -1.50931
upperneck -8.48414 -0.387512 -1.73378
head 0.896762 -0.209701 -0.328563
rclavicle -7.95139e-016 -1.33186e-014
rhumerus -48.8994 -26.9309 -54.1396
rradius 16.7585
rwrist 43.3613
rhand -20.5789 -21.8745
rfingers 7.12502
rthumb 5.78095 -51.7757
lclavicle -7.95139e-016 -1.33186e-014
lhumerus -42.3992 18.5975 68.9356
lradius 5.15407
lwrist -13.165
lhand -24.5892 -6.19675
lfingers 7.12502
lthumb 1.90836 23.7745
rfemur -89.4726 -0.64159 23.7482
rtibia 88.7108
rfoot -33.2112 -17.9602
rtoes 5.97018
lfemur -91.0215 6.40718 -22.0986
ltibia 88.2268
lfoot -26.6468 22.9347
ltoes -8.43862
252
root 0.534338 13.5564 -15.9768 34.8187 1.23166 -2.55336
lowerback 39.114 1.55269 -0.700276
upperback 2.88639 2.21803 3.20875
thorax -16.3106 1.06476 2.90025
lowerneck -22.108 -0.540835 -1.49836
upperneck -8.35944 -0.388142 -1.75779
head 0.970437 -0.213342 -0.339293
rclavicle -8.34896e-015 -7.95139e-016
rhumerus -46.8212 -27.8424 -54.8682
rradius 16.7717
rwrist 43.654
rhand -20.9734 -22.0804
rfingers 7.12502
rthumb 5.40004 -51.9916
lclavicle -8.34896e-015 -7.95139e-016
lhumerus -40.1831 19.9202 68.9197
lradius 4.60245
lwrist -14.5575
lhand -25.2031 -6.18468
lfingers 7.12502
lthumb 1.31538 23.791
rfemur -89.1314 -0.498568 23.7229
rtibia 88.5212
rfoot -33.3009 -18.2195
rtoes 6.02839
lfemur -90.6981 6.29882 -21.8773
ltibia 88.0899
lfoot -26.7874 23.0839
ltoes -8.10134
